<svg width="52" height="52" viewBox="0 0 52 52" fill="currentColor" xmlns="http://www.w3.org/2000/svg">
    <circle cx="26" cy="26" r="26" fill="none"/>
    <path fill-rule="evenodd" clip-rule="evenodd" d="M10 46.4954V40.7782C10 35.4392 13.88 31.2347 19.1113 29.2489C17.1948 27.427 16 24.853 16 22C16 16.4772 20.4772 12 26 12C31.5228 12 36 16.4772 36 22C36 24.853 34.8052 27.427 32.8887 29.2489C38.12 31.2347 42 35.4392 42 40.7782V46.4954C40.7529 47.4703 39.4146 48.3339 38 49.0712V40.7782C38 36.3849 33.1452 32 26 32C18.8548 32 14 36.3849 14 40.7782V49.0712C12.5854 48.3339 11.2471 47.4703 10 46.4954ZM20 22C20 18.6863 22.6863 16 26 16C29.3137 16 32 18.6863 32 22C32 25.3137 29.3137 28 26 28C22.6863 28 20 25.3137 20 22Z" fill="currentColor"/>
</svg>
